<?xml version="1.0" standalone="no"?>
<!DOCTYPE svg PUBLIC "-//W3C//DTD SVG 20010904//EN"
 "http://www.w3.org/TR/2001/REC-SVG-20010904/DTD/svg10.dtd">
<svg version="1.0" xmlns="http://www.w3.org/2000/svg"
 width="48.000000pt" height="48.000000pt" viewBox="0 0 48.000000 48.000000"
 preserveAspectRatio="xMidYMid meet">

<g transform="translate(0.000000,48.000000) scale(0.100000,-0.100000)"
fill="#000000" stroke="none">
<path d="M106 311 c-11 -23 -18 -66 -19 -110 l-2 -71 53 0 52 0 0 42 c0 29 -7
49 -21 64 l-21 22 21 11 c17 10 19 15 9 42 -7 19 -15 28 -24 25 -8 -3 -14 -1
-14 4 0 23 -18 7 -34 -29z"/>
<path d="M210 240 c0 -11 4 -20 8 -20 4 0 8 9 8 20 0 11 -4 20 -8 20 -4 0 -8
-9 -8 -20z"/>
<path d="M300 245 c-10 -12 -9 -16 4 -21 9 -3 23 -1 31 6 11 9 15 9 15 1 0 -7
5 -9 10 -6 17 10 11 26 -7 23 -10 -1 -23 1 -29 5 -7 4 -17 0 -24 -8z"/>
<path d="M243 235 c0 -8 4 -12 9 -9 5 3 6 10 3 15 -9 13 -12 11 -12 -6z"/>
<path d="M272 228 c2 -12 10 -23 18 -25 10 -3 11 -2 4 4 -6 4 -10 16 -8 26 1
9 -2 17 -8 17 -5 0 -8 -10 -6 -22z"/>
<path d="M211 187 c0 -13 3 -16 6 -8 5 11 7 11 14 0 7 -11 9 -11 9 2 0 9 -7
19 -15 23 -11 4 -15 -1 -14 -17z"/>
<path d="M319 191 c11 -7 11 -9 0 -13 -8 -3 -2 -5 14 -5 25 0 26 1 10 13 -10
7 -22 13 -28 14 -5 0 -4 -4 4 -9z"/>
</g>
</svg>
